PathFileType  4	(X/Y/Z) C:\Users\antoi\Documents\MyRepositories\mobilecap\ResultsAnalysis
DataRate	CameraRate	NumFrames	NumMarkers	Units	OrigDataRate	OrigDataStartFrame	OrigNumFrames
100.0	100.0	4	51	mm	100.0	111	221
Frame#	Time	r_knee			r_shank_antsup			r_ankle			r_calc			r_5meta			r_toe			L_knee			L_shank_antsup			L_ankle			L_calc			L_5meta			L_toe			r_sh2			r_sh3			r_sh4			L_sh2			L_sh3			r_thigh1			r_thigh2			r_thigh3			r_thigh4			r_thigh5			L_thigh1			L_thigh2			L_thigh3			L_thigh4			r.ASIS			r.PSIS			L.ASIS			L.PSIS			C7			R_Shoulder			L_Shoulder			R_Sternum			L_Sternum			R_humerus			R_elbow_med			R_elbow_lat			R_forearm			R_wrist_radius			R_wrist_ulna			L_humerus			L_elbow_med			L_elbow_lat			L_forearm			L_wrist_radius			L_wrist_ulna			R_HJC			L_HJC			R_HJC_reg			L_HJC_reg			
		X1	Y1	Z1	X2	Y2	Z2	X3	Y3	Z3	X4	Y4	Z4	X5	Y5	Z5	X6	Y6	Z6	X7	Y7	Z7	X8	Y8	Z8	X9	Y9	Z9	X10	Y10	Z10	X11	Y11	Z11	X12	Y12	Z12	X13	Y13	Z13	X14	Y14	Z14	X15	Y15	Z15	X16	Y16	Z16	X17	Y17	Z17	X18	Y18	Z18	X19	Y19	Z19	X20	Y20	Z20	X21	Y21	Z21	X22	Y22	Z22	X23	Y23	Z23	X24	Y24	Z24	X25	Y25	Z25	X26	Y26	Z26	X27	Y27	Z27	X28	Y28	Z28	X29	Y29	Z29	X30	Y30	Z30	X31	Y31	Z31	X32	Y32	Z32	X33	Y33	Z33	X34	Y34	Z34	X35	Y35	Z35	X36	Y36	Z36	X37	Y37	Z37	X38	Y38	Z38	X39	Y39	Z39	X40	Y40	Z40	X41	Y41	Z41	X42	Y42	Z42	X43	Y43	Z43	X44	Y44	Z44	X45	Y45	Z45	X46	Y46	Z46	X47	Y47	Z47	X48	Y48	Z48	X49	Y49	Z49	X50	Y50	Z50	X51	Y51	Z51	

111	1.10000000	-207.46301	438.02452	-444.15283	-193.46479	366.44173	-420.38737	-292.82442	89.94437	-469.59348	-366.31520	56.80159	-507.65632	-196.04300	43.73008	-441.23956	-150.55129	61.67145	-497.12163	-190.09634	442.24270	-764.35248	-160.81509	371.44831	-773.46476	-293.40850	96.94792	-771.44778	-370.03101	59.52403	-731.02067	-204.11151	42.39012	-796.80926	-156.76274	64.53373	-739.29390	-218.47416	255.81412	-423.24828	-266.06219	382.35166	-431.93413	-297.88532	271.70201	-438.98218	-241.73400	404.22048	-794.74485	-274.16886	286.10026	-798.04879	-391.91936	687.78830	-434.16936	-299.77523	622.96603	-429.66258	-312.12018	569.22465	-387.45554	-450.17522	613.64256	-370.20240	-361.00650	539.72806	-386.76939	-372.36582	661.27107	-742.26250	-259.19234	583.70395	-755.01310	-444.82427	571.24446	-762.04421	-323.39335	496.52837	-769.55214	-434.04992	742.31198	-430.98864	-598.25562	783.81317	-533.50377	-409.25347	714.54440	-680.97993	-591.09559	776.73947	-637.74301	-297.80134	1158.23719	-541.60289	-299.58565	1085.57095	-391.78118	-225.27271	1114.13621	-683.71380	-216.39538	1036.33039	-507.13717	-205.67395	1039.65040	-551.96523	-499.15119	977.06590	-322.59223	-593.56093	919.40944	-382.24647	-582.60934	959.58582	-312.08091	-511.74894	868.15688	-280.20955	-447.06298	781.48537	-266.30162	-479.87872	758.50160	-246.33387	-247.51828	1029.42060	-784.84524	-409.46050	892.15254	-865.96359	-386.92019	934.02419	-915.03353	-288.93432	866.35909	-914.01591	-214.65792	771.91966	-893.55718	-226.12608	756.55386	-923.99201	-512.02839	678.32064	-462.03011	-484.85124	658.99471	-659.53237	-503.15251	665.65144	-466.15243	-491.77568	654.34306	-632.19738	
112	1.11000000	-194.51117	436.00117	-443.46549	-186.24974	365.18063	-420.73389	-292.60318	90.10097	-469.79114	-366.31672	56.91133	-507.75564	-196.17521	43.34190	-441.03477	-150.50728	61.52201	-496.94880	-177.12499	444.81681	-762.45757	-147.88885	373.83864	-769.78523	-289.82205	97.81687	-772.11504	-368.78681	60.96710	-730.74712	-203.08683	42.05925	-796.89004	-154.89092	63.48732	-739.26578	-214.59798	255.65588	-422.24012	-257.87753	383.70700	-433.49563	-293.61996	274.00008	-438.66953	-227.60757	411.42690	-786.33747	-266.35742	295.47734	-794.86321	-386.34607	672.13021	-431.18312	-292.58937	609.60388	-426.78746	-306.36977	553.34861	-387.69279	-445.77077	595.24049	-372.86734	-355.50598	523.13654	-390.11396	-372.59833	654.40934	-741.66053	-255.63044	581.86619	-752.86832	-439.08982	560.49892	-763.72946	-314.25167	491.30623	-769.90335	-431.95380	726.63069	-433.91854	-595.37748	770.10835	-534.33758	-405.32891	702.42196	-682.11768	-586.87458	764.68939	-639.24844	-287.76435	1132.31536	-544.34682	-284.56815	1058.05591	-392.38376	-211.02540	1084.57016	-688.54816	-206.35970	1009.38082	-510.61433	-195.61008	1012.84028	-554.78432	-479.12213	937.79089	-319.60330	-573.69722	876.14689	-376.39136	-560.86556	913.41282	-305.25700	-486.21804	822.45350	-279.96529	-419.32311	736.92768	-272.68245	-450.51631	712.23509	-251.81056	-234.13582	994.05912	-784.59998	-392.83027	851.13216	-863.29921	-369.92446	891.47427	-914.07019	-270.96962	824.66463	-908.09730	-195.56049	733.46667	-881.58688	-206.84015	715.82781	-911.07936	-509.55736	663.26853	-464.85758	-481.45447	646.92420	-662.48283	-500.93679	650.79328	-470.89457	-487.58993	642.27440	-635.68762	
113	1.12000000	-184.30472	435.95942	-442.02027	-177.92956	365.26351	-421.35953	-292.66745	90.18290	-470.01529	-366.31725	56.98797	-507.93680	-196.23811	43.33023	-440.94856	-150.54754	61.44439	-496.80177	-168.78213	444.47273	-761.12648	-138.81936	374.30238	-767.96707	-289.11563	98.79512	-771.21718	-368.24457	61.79173	-730.21253	-202.78217	42.21109	-796.57424	-154.14823	63.02498	-738.89313	-210.92080	257.28413	-420.86035	-248.51354	386.89001	-434.63605	-289.51288	278.57727	-437.19781	-218.40828	413.86860	-780.05309	-258.37840	299.02669	-796.34769	-383.83907	659.43575	-429.81581	-289.12442	599.59983	-425.04492	-302.62237	542.62005	-387.59412	-443.18321	580.34829	-374.53997	-350.97110	510.54528	-391.90800	-372.20944	645.69862	-740.76019	-252.77873	576.94976	-752.46350	-434.23611	549.69149	-765.39757	-307.48528	484.36244	-770.56028	-429.10547	709.30859	-436.10631	-592.79663	757.84233	-532.88425	-402.30935	691.49129	-685.49082	-583.55498	752.67986	-638.65755	-277.35411	1107.50297	-546.99923	-269.84218	1032.72129	-394.88598	-198.02892	1057.73576	-693.04783	-197.06735	983.78087	-514.62149	-186.30754	987.43712	-558.16530	-456.13061	900.01354	-316.52957	-550.30950	833.32037	-370.40387	-535.69673	868.38761	-298.44337	-457.08932	777.99395	-279.76918	-387.90971	694.27269	-278.95503	-417.67706	668.09895	-256.90956	-220.47830	962.70902	-782.95805	-373.65059	811.54432	-859.58162	-350.02348	849.80137	-912.98688	-250.48310	784.57807	-900.90451	-174.19092	697.18729	-867.35136	-184.75111	677.76810	-896.54767	-506.58276	647.46940	-467.72562	-479.61633	635.96396	-665.84172	-500.18363	638.00868	-474.41365	-485.74331	629.96892	-639.56290	
114	1.13000000	-179.25519	434.65666	-440.57558	-170.62133	363.80132	-420.60557	-292.44454	90.40349	-470.18572	-366.07854	57.40996	-508.33154	-196.22877	43.35788	-440.90491	-150.41549	61.23977	-496.64053	-163.38359	439.72491	-759.44654	-132.87311	369.75540	-768.18318	-289.25085	98.86496	-770.70708	-368.27876	61.65924	-730.24406	-202.82679	42.12735	-796.50884	-154.18374	62.80556	-739.03008	-208.22453	257.02122	-421.68436	-240.35344	388.27321	-434.11774	-285.99532	281.70444	-437.13954	-212.01534	410.54203	-779.72416	-253.14796	296.27791	-797.65104	-385.01736	650.88421	-431.32964	-289.39128	594.36819	-425.34817	-301.31235	537.62784	-387.49859	-442.71288	570.34793	-375.55159	-347.82966	503.11338	-392.65219	-370.68150	635.67897	-741.77691	-249.47779	570.08703	-753.64683	-429.99990	538.30322	-766.69744	-301.62508	475.90414	-769.93381	-426.01965	692.28169	-437.77814	-589.98269	746.65445	-531.83381	-399.79079	679.59836	-689.98124	-580.38200	740.79762	-637.53451	-265.26579	1086.46482	-549.18428	-256.39162	1009.74337	-399.13961	-185.80656	1033.53079	-695.87249	-188.22337	960.54823	-518.28498	-177.49766	964.25048	-561.48004	-430.45668	864.03189	-313.86460	-524.11522	792.69153	-364.08383	-507.20324	825.37747	-291.87658	-424.37483	735.85099	-280.04137	-353.18787	655.28618	-285.40644	-381.24131	627.26423	-262.90610	-205.68933	934.80728	-780.99431	-352.21309	775.03855	-853.91447	-328.01312	810.84943	-910.05473	-227.70611	747.91225	-891.11111	-151.16089	664.18087	-850.45705	-160.32049	643.78746	-879.87090	-503.82974	632.35507	-470.35175	-478.71363	624.61322	-668.91641	-500.16215	626.04269	-476.89493	-485.02715	616.80380	-643.50774	
